<?xml version="1.0" encoding="utf-8"?>
<!-- Generator: Adobe Illustrator 24.1.2, SVG Export Plug-In . SVG Version: 6.00 Build 0)  -->
<svg version="1.1" id="Layer_1" xmlns="http://www.w3.org/2000/svg" xmlns:xlink="http://www.w3.org/1999/xlink" x="0px" y="0px"
	 viewBox="0 0 150 256" style="enable-background:new 0 0 150 256;" xml:space="preserve">
<style type="text/css">
	.st0{fill:#D10000;}
</style>
<path class="st0" d="M19.5,82.1l123,71c1.9,1.1,2.6,3.6,1.5,5.5l-8,13.9c-1.1,1.9-3.6,2.6-5.5,1.5l-123-71c-1.9-1.1-2.6-3.6-1.5-5.5
	l8-13.9C15.2,81.7,17.6,81,19.5,82.1z"/>
<path class="st0" d="M87,57v142c0,2.2-1.8,4-4,4H67c-2.2,0-4-1.8-4-4V57c0-2.2,1.8-4,4-4h16C85.2,53,87,54.8,87,57z"/>
<path class="st0" d="M142.5,102.9l-123,71c-1.9,1.1-4.4,0.4-5.5-1.5l-8-13.9c-1.1-1.9-0.4-4.4,1.5-5.5l123-71
	c1.9-1.1,4.4-0.4,5.5,1.5l8,13.9C145.1,99.3,144.4,101.8,142.5,102.9z"/>
</svg>
